<svg xmlns="http://www.w3.org/2000/svg" viewBox="0 0 53.25 53.25"><title>Asset 8</title><g id="Layer_2" data-name="Layer 2"><g id="text"><path d="M53.25,53.25H0V0H53.25ZM26.67.57H6a5.18,5.18,0,0,0-2.69.7A5.27,5.27,0,0,0,.59,6q0,20.6,0,41.2a5.37,5.37,0,0,0,.07.9,5.29,5.29,0,0,0,2.84,4,5.4,5.4,0,0,0,2.62.61H47.19q.3,0,.6,0a5.19,5.19,0,0,0,3.43-1.62,5.27,5.27,0,0,0,1.5-3.75c0-4.47,0-8.94,0-13.41V6.08a6.51,6.51,0,0,0,0-.77A5.35,5.35,0,0,0,47.31.57Z"/><path d="M26.66,2.78H47.17a3.49,3.49,0,0,1,1.2.17,3.15,3.15,0,0,1,2.14,2.83V47.14a3.24,3.24,0,0,1-.41,1.75,3.15,3.15,0,0,1-2.69,1.61H6.1a3.23,3.23,0,0,1-2-.62,3.16,3.16,0,0,1-1.3-2.51V6.1a3.24,3.24,0,0,1,.31-1.5A3.1,3.1,0,0,1,5.79,2.79H26.66ZM5.59,26.63q0,10.26,0,20.52c0,.41.14.56.56.56h41.2a.38.38,0,0,0,.39-.35,1.34,1.34,0,0,0,0-.2v-41a1.41,1.41,0,0,0,0-.2.39.39,0,0,0-.36-.35H6.1c-.4,0-.51.12-.51.52V26.63Z"/><path d="M36.15,11.5a16.94,16.94,0,0,1,3.69.39,8.22,8.22,0,0,1,2.35.92,4.66,4.66,0,0,1,1.25,1,3.31,3.31,0,0,1,.08,4A2.7,2.7,0,0,1,41.33,19a5.42,5.42,0,0,1-1.78-.31c-.53-.17-1-.36-1.58-.51a7.89,7.89,0,0,0-2.65-.3,3,3,0,0,0-1.92.76,2.08,2.08,0,0,0-.65,2.07,1.14,1.14,0,0,0,.42.69,4,4,0,0,0,1,.6l2.56.94c1,.36,2.08.68,3.1,1.07a12.59,12.59,0,0,1,3.5,2,6.15,6.15,0,0,1,2.21,3.73,12.52,12.52,0,0,1,.19,3.4,9.88,9.88,0,0,1-.65,3,7.83,7.83,0,0,1-3,3.69,11.37,11.37,0,0,1-4.2,1.71,15.78,15.78,0,0,1-3.88.26,17,17,0,0,1-5.18-1,8.93,8.93,0,0,1-2.44-1.38,3,3,0,0,1-1.15-1.8,3.71,3.71,0,0,1,.65-2.86,2.71,2.71,0,0,1,2.52-1.19,5.08,5.08,0,0,1,1.33.33l2.44.87a8.56,8.56,0,0,0,2.92.48A5.66,5.66,0,0,0,36.8,35a2.53,2.53,0,0,0,1.9-1.94,2.26,2.26,0,0,0-.91-2.48,5.76,5.76,0,0,0-1.5-.77c-1-.34-1.94-.66-2.92-1a28.28,28.28,0,0,1-3.08-1.11,9.13,9.13,0,0,1-2-1.15,6.47,6.47,0,0,1-2.47-4.38A10.91,10.91,0,0,1,26,18a8,8,0,0,1,3.5-4.75,10.76,10.76,0,0,1,3.75-1.47A14.53,14.53,0,0,1,36.15,11.5Z"/><path d="M23.44,24.06v8A16.91,16.91,0,0,1,23,36a7.72,7.72,0,0,1-1.5,3.15,6.48,6.48,0,0,1-3.39,2.19,11.74,11.74,0,0,1-3.82.41,11,11,0,0,1-3.91-.89,7,7,0,0,1-1.92-1.3,2.94,2.94,0,0,1-.92-1.78,4.15,4.15,0,0,1,.16-2A2.7,2.7,0,0,1,9.22,34.1a2.79,2.79,0,0,1,2.56.12l1.4.81a2.73,2.73,0,0,0,1.63.39,1.82,1.82,0,0,0,1.62-1.1,4.47,4.47,0,0,0,.35-1.25,15.42,15.42,0,0,0,.13-2.15V15.52a5.35,5.35,0,0,1,.16-1.44A2.81,2.81,0,0,1,19.5,12a3.73,3.73,0,0,1,1.63.05,2.89,2.89,0,0,1,2.21,2.32,5.53,5.53,0,0,1,.1,1.22Z"/></g></g></svg>